<svg width="33" height="56" viewBox="0 0 33 56" fill="none" xmlns="http://www.w3.org/2000/svg">
<path d="M29.8396 0H2.76852C1.24193 0 0 1.24204 0 2.76852V52.9115C0 54.4381 1.24204 55.68 2.76852 55.68H29.8396C31.3662 55.68 32.6081 54.438 32.6081 52.9115V2.76852C32.6081 1.24193 31.3661 0 29.8396 0ZM30.7627 52.9116C30.7627 53.4206 30.3486 53.8343 29.84 53.8343L2.76895 53.8347C2.25996 53.8347 1.84625 53.4206 1.84625 52.912L1.84582 2.76906C1.84582 2.26007 2.25996 1.84636 2.76852 1.84636H29.8396C30.3486 1.84636 30.7623 2.2605 30.7623 2.76906L30.7627 52.9116Z" fill="black"/>
<path d="M17.8424 50.9118C17.8424 51.7611 17.1536 52.4499 16.3042 52.4499C15.4549 52.4499 14.7661 51.7611 14.7661 50.9118C14.7661 50.0625 15.4549 49.3737 16.3042 49.3737C17.1536 49.3737 17.8424 50.0625 17.8424 50.9118Z" fill="black"/>
<path d="M14.5856 19.5165C14.6466 19.529 16.7113 19.5345 16.7113 19.5345L15.7195 24.4124L15.4191 24.112C15.0586 23.7515 14.4745 23.7515 14.114 24.112C13.7535 24.472 13.7535 25.057 14.114 25.4171L15.6521 26.9552C15.832 27.135 16.068 27.2247 16.3045 27.2247C16.5409 27.2247 16.777 27.135 16.9572 26.9548L18.4954 25.4166C18.8558 25.0566 18.8558 24.4716 18.4954 24.1115C18.2812 23.8974 17.9906 23.8266 17.7126 23.8665L18.7481 18.7748C18.8486 18.2834 18.5241 17.8045 18.0241 17.7066C17.9404 17.6895 15.8921 17.6886 15.8921 17.6886L17.2091 11.1018C17.3096 10.6023 16.9851 10.1156 16.4852 10.016C15.9847 9.9156 15.4989 10.2405 15.3994 10.74L13.8612 18.4307C13.7617 18.9302 14.0856 19.417 14.5856 19.5165Z" fill="black"/>
<path d="M7.07505 37.9915H25.5326C26.042 37.9915 26.4553 37.5782 26.4553 37.0688C26.4553 36.5594 26.042 36.1461 25.5326 36.1461H7.07505C6.5652 36.1461 6.15234 36.5594 6.15234 37.0688C6.15234 37.5782 6.5652 37.9915 7.07505 37.9915Z" fill="black"/>
<path d="M28.6089 3.84525H3.99887C3.48903 3.84525 3.07617 4.2581 3.07617 4.76795V47.8355C3.07617 48.3449 3.48903 48.7582 3.99887 48.7582H28.6089C29.1183 48.7582 29.5316 48.3449 29.5316 47.8355V4.76795C29.5316 4.2581 29.1183 3.84525 28.6089 3.84525ZM27.6862 46.9128H4.92193L4.9215 5.691H27.6858L27.6862 46.9128Z" fill="black"/>
<path d="M17.8423 41.6829H20.9185L19.3804 38.6067L17.8423 41.6829Z" fill="black"/>
</svg>
