<svg width="115" height="113" viewBox="0 0 115 113" fill="none" xmlns="http://www.w3.org/2000/svg">
<path d="M30.714 15.126C22.1183 15.126 15.126 22.1183 15.126 30.714C15.126 39.3097 22.1183 46.3021 30.714 46.3021C39.3097 46.3021 46.302 39.3097 46.302 30.714C46.303 22.1183 39.3097 15.126 30.714 15.126ZM30.714 42.0163C24.4829 42.0163 19.4107 36.9462 19.4107 30.713C19.4107 24.4819 24.4808 19.4097 30.714 19.4097C36.9472 19.4097 42.0173 24.4798 42.0173 30.713C42.0173 36.9462 36.9472 42.0163 30.714 42.0163Z" fill="#064A3C"/>
<path d="M2.14245 32.8564H12.2269C13.4107 32.8564 14.3694 31.8978 14.3694 30.714C14.3694 29.5302 13.4107 28.5715 12.2269 28.5715H2.14245C0.958624 28.5715 0 29.5302 0 30.714C0 31.8978 0.958624 32.8564 2.14245 32.8564Z" fill="#064A3C"/>
<path d="M47.0586 30.7135C47.0586 31.8973 48.0172 32.856 49.201 32.856H59.2855C60.4693 32.856 61.428 31.8973 61.428 30.7135C61.428 29.5297 60.4693 28.571 59.2855 28.571H49.201C48.0182 28.571 47.0586 29.5297 47.0586 30.7135Z" fill="#064A3C"/>
<path d="M30.7137 14.3694C31.8975 14.3694 32.8562 13.4107 32.8562 12.2269L32.8572 2.14245C32.8572 0.958624 31.8985 0 30.7147 0C29.5309 0 28.5723 0.958624 28.5723 2.14245V12.2269C28.5713 13.4097 29.5299 14.3694 30.7137 14.3694Z" fill="#064A3C"/>
<path d="M28.5713 49.201V59.2855C28.5713 60.4693 29.5299 61.428 30.7137 61.428C31.8976 61.428 32.8562 60.4693 32.8562 59.2855V49.201C32.8562 48.0172 31.8976 47.0586 30.7137 47.0586C29.5299 47.0586 28.5713 48.0182 28.5713 49.201Z" fill="#064A3C"/>
<path d="M16.1278 19.1579C16.5463 19.5764 17.0954 19.7847 17.6434 19.7847C18.1925 19.7847 18.7406 19.5764 19.1591 19.1579C19.9961 18.3218 19.9961 16.9636 19.1591 16.1275L12.0292 8.99765C11.1922 8.16061 9.83594 8.16061 8.99888 8.99765C8.16183 9.8337 8.16183 11.1919 8.99888 12.028L16.1278 19.1579Z" fill="#064A3C"/>
<path d="M42.2694 42.2699C41.4323 43.1059 41.4323 44.4642 42.2694 45.3002L49.3992 52.4301C49.8178 52.8486 50.3668 53.0569 50.9149 53.0569C51.464 53.0569 52.012 52.8486 52.4306 52.4301C53.2676 51.594 53.2676 50.2358 52.4306 49.3997L45.3007 42.2699C44.4627 41.4328 43.1065 41.4328 42.2694 42.2699Z" fill="#064A3C"/>
<path d="M43.7851 19.7849C44.3341 19.7849 44.8822 19.5766 45.3007 19.1581L52.4306 12.0283C53.2676 11.1922 53.2676 9.83397 52.4306 8.9979C51.5935 8.16086 50.2373 8.16086 49.4002 8.9979L42.2704 16.1278C41.4333 16.9638 41.4333 18.322 42.2704 19.1581C42.6889 19.5756 43.238 19.7849 43.7851 19.7849Z" fill="#064A3C"/>
<path d="M8.99391 52.4306C9.41243 52.8491 9.96152 53.0574 10.5096 53.0574C11.0586 53.0574 11.6067 52.8491 12.0252 52.4306L19.1551 45.3007C19.9921 44.4647 19.9921 43.1064 19.1551 42.2704C18.3181 41.4333 16.9618 41.4333 16.1247 42.2704L8.99488 49.4002C8.15682 50.2373 8.15685 51.5945 8.99391 52.4306Z" fill="#064A3C"/>
<path d="M23.816 101.709C22.5744 102.599 21.7543 103.92 21.5061 105.425C21.258 106.932 21.6108 108.443 22.4986 109.684C23.5699 111.179 25.3068 112.072 27.1464 112.072C28.3451 112.072 29.4951 111.7 30.4716 111.001L42.4186 102.44V110.601C42.4186 111.784 43.3772 112.743 44.561 112.743C45.7449 112.743 46.7035 111.784 46.7035 110.601C46.7035 110.601 46.6806 99.5626 46.6447 99.4093L65.3049 86.0384C66.5466 85.1515 67.3667 83.8311 67.6168 82.3253C67.8669 80.8166 67.5142 79.3049 66.6243 78.0644C65.5531 76.5696 63.8161 75.6768 61.9766 75.6768C60.7778 75.6768 59.6279 76.0484 58.6513 76.747L23.816 101.709ZM61.9768 79.9628C62.4451 79.9628 62.8697 80.181 63.1407 80.5617C63.3639 80.8716 63.4506 81.2493 63.3878 81.626C63.3261 82.0027 63.1208 82.3315 62.8109 82.5527L27.9766 107.518C27.6677 107.738 27.3548 107.787 27.1485 107.787C26.6802 107.787 26.2557 107.57 25.9846 107.188C25.7634 106.878 25.6747 106.5 25.7375 106.125C25.7993 105.748 26.0046 105.417 26.3145 105.196L61.1487 80.2298C61.4586 80.0096 61.7705 79.9628 61.9778 79.9628L61.9768 79.9628Z" fill="#064A3C"/>
<path d="M74.4508 112.071C75.6506 112.071 76.8006 111.7 77.7761 111.001L89.722 102.439V110.601C89.722 111.784 90.6817 112.743 91.8645 112.743C93.0473 112.743 94.0069 111.784 94.0069 110.601C94.0069 110.601 93.984 99.5634 93.9501 99.4091L112.61 86.0381C113.852 85.1493 114.672 83.8299 114.922 82.3223C115.17 80.8156 114.818 79.3019 113.93 78.0634C112.859 76.5686 111.122 75.6758 109.281 75.6758C108.082 75.6758 106.932 76.0475 105.956 76.746L71.119 101.71C69.8793 102.6 69.0592 103.92 68.8101 105.427C68.5619 106.933 68.9127 108.444 69.8016 109.684C70.8738 111.179 72.6118 112.072 74.4503 112.072L74.4508 112.071ZM73.6168 105.196L108.451 80.2316C108.76 80.0104 109.073 79.9625 109.279 79.9625C109.746 79.9625 110.171 80.1798 110.443 80.5624C110.664 80.8713 110.753 81.248 110.691 81.6257C110.628 82.0024 110.422 82.3312 110.112 82.5524L75.278 107.519C74.969 107.739 74.6561 107.788 74.4499 107.788C73.9825 107.788 73.558 107.57 73.286 107.189C73.0647 106.879 72.9761 106.501 73.0388 106.124C73.0996 105.748 73.3039 105.417 73.6148 105.196L73.6168 105.196Z" fill="#064A3C"/>
</svg>
