<svg width="190" height="50" viewBox="0 0 190 50" fill="none" xmlns="http://www.w3.org/2000/svg">
<path d="M25 50C38.8071 50 50 38.8071 50 25C50 11.1929 38.8071 0 25 0C11.1929 0 0 11.1929 0 25C0 38.8071 11.1929 50 25 50Z" fill="#064A3C"/>
<mask id="mask0_305_11" style="mask-type:alpha" maskUnits="userSpaceOnUse" x="4" y="4" width="42" height="42">
<path d="M25.3372 45.2703C13.9557 45.2703 4.72911 36.195 4.72911 25C4.72911 13.8051 13.9557 4.72974 25.3372 4.72974C36.7188 4.72974 45.9453 13.8051 45.9453 25C45.9453 36.195 36.7188 45.2703 25.3372 45.2703Z" fill="#FECD45"/>
</mask>
<g mask="url(#mask0_305_11)">
<path d="M-22.7481 2.0271H26.0244V50.0001H-22.7481V2.0271Z" fill="#FECD45"/>
</g>
<path d="M65.4483 30.16C64.531 30.16 63.715 30.016 63.0003 29.728C62.2963 29.44 61.699 29.04 61.2083 28.528C60.7283 28.0053 60.3603 27.392 60.1043 26.688C59.859 25.9733 59.7363 25.1947 59.7363 24.352V24.224C59.7363 23.3707 59.875 22.5867 60.1523 21.872C60.4403 21.1573 60.835 20.544 61.3363 20.032C61.8376 19.5093 62.4403 19.104 63.1443 18.816C63.8483 18.528 64.6163 18.384 65.4483 18.384C66.0563 18.384 66.643 18.4587 67.2083 18.608C67.7736 18.7467 68.275 18.976 68.7123 19.296C69.1603 19.6053 69.5283 20.0053 69.8163 20.496C70.115 20.976 70.3016 21.5573 70.3763 22.24H68.2483C68.1203 21.472 67.811 20.9173 67.3203 20.576C66.8403 20.2347 66.227 20.064 65.4803 20.064C64.915 20.064 64.4136 20.1653 63.9763 20.368C63.539 20.56 63.171 20.8427 62.8723 21.216C62.5736 21.5787 62.3443 22.016 62.1843 22.528C62.0243 23.04 61.9443 23.6107 61.9443 24.24V24.368C61.9443 24.976 62.0136 25.536 62.1523 26.048C62.3016 26.5493 62.5203 26.9813 62.8083 27.344C63.107 27.7067 63.475 27.9893 63.9123 28.192C64.3603 28.3947 64.883 28.496 65.4803 28.496C66.0136 28.496 66.4723 28.4213 66.8563 28.272C67.2403 28.1227 67.555 27.92 67.8003 27.664C68.0456 27.3973 68.227 27.088 68.3443 26.736C68.4723 26.384 68.547 26.0107 68.5683 25.616H65.6883V24.016H70.6643V25.072C70.6643 25.8613 70.5416 26.5707 70.2963 27.2C70.0616 27.8293 69.7203 28.3627 69.2723 28.8C68.8243 29.2373 68.275 29.5733 67.6243 29.808C66.9843 30.0427 66.259 30.16 65.4483 30.16ZM77.1811 30.16C75.7411 30.16 74.6317 29.7813 73.8531 29.024C73.0744 28.256 72.6851 27.1307 72.6851 25.648V18.56H74.8291V25.488C74.8291 26.544 75.0104 27.3013 75.3731 27.76C75.7357 28.2187 76.3437 28.448 77.1971 28.448C77.6131 28.448 77.9757 28.4 78.2851 28.304C78.5944 28.1973 78.8504 28.0267 79.0531 27.792C79.2664 27.5467 79.4211 27.2267 79.5171 26.832C79.6237 26.4373 79.6771 25.9413 79.6771 25.344V18.56H81.8211V25.52C81.8211 27.024 81.4264 28.176 80.6371 28.976C79.8584 29.7653 78.7064 30.16 77.1811 30.16ZM86.8657 18.56H89.6497L93.4257 30H91.2177L90.3057 27.168H85.9377L85.0417 30H83.0417L86.8657 18.56ZM86.4337 25.616H89.8097L88.1297 20.304L86.4337 25.616ZM95.2342 18.56H99.0742C99.7035 18.56 100.279 18.6293 100.802 18.768C101.325 18.896 101.773 19.0987 102.146 19.376C102.53 19.6427 102.823 19.9893 103.026 20.416C103.239 20.832 103.346 21.3333 103.346 21.92V21.984C103.346 22.432 103.277 22.8267 103.138 23.168C103.01 23.5093 102.829 23.808 102.594 24.064C102.37 24.3093 102.103 24.512 101.794 24.672C101.485 24.832 101.154 24.96 100.802 25.056L104.018 30H101.714L98.7222 25.376H97.3622V30H95.2342V18.56ZM99.0742 23.856C100.525 23.856 101.25 23.248 101.25 22.032V21.968C101.25 21.3067 101.058 20.848 100.674 20.592C100.29 20.336 99.7568 20.208 99.0742 20.208H97.3622V23.856H99.0742ZM108.725 18.56H111.509L115.285 30H113.077L112.165 27.168H107.797L106.901 30H104.901L108.725 18.56ZM108.293 25.616H111.669L109.989 20.304L108.293 25.616ZM120.968 18.56H128.12V20.24H123.096V23.376H127.128V24.976H123.096V28.32H128.392V30H120.968V18.56ZM130.375 18.56H132.919L137.735 26.832V18.56H139.671V30H137.463L132.311 21.232V30H130.375V18.56ZM142.359 18.56H149.511V20.24H144.487V23.376H148.519V24.976H144.487V28.32H149.783V30H142.359V18.56ZM151.765 18.56H155.605C156.234 18.56 156.81 18.6293 157.333 18.768C157.856 18.896 158.304 19.0987 158.677 19.376C159.061 19.6427 159.354 19.9893 159.557 20.416C159.77 20.832 159.877 21.3333 159.877 21.92V21.984C159.877 22.432 159.808 22.8267 159.669 23.168C159.541 23.5093 159.36 23.808 159.125 24.064C158.901 24.3093 158.634 24.512 158.325 24.672C158.016 24.832 157.685 24.96 157.333 25.056L160.549 30H158.245L155.253 25.376H153.893V30H151.765V18.56ZM155.605 23.856C157.056 23.856 157.781 23.248 157.781 22.032V21.968C157.781 21.3067 157.589 20.848 157.205 20.592C156.821 20.336 156.288 20.208 155.605 20.208H153.893V23.856H155.605ZM167.292 30.16C166.374 30.16 165.558 30.016 164.844 29.728C164.14 29.44 163.542 29.04 163.052 28.528C162.572 28.0053 162.204 27.392 161.948 26.688C161.702 25.9733 161.58 25.1947 161.58 24.352V24.224C161.58 23.3707 161.718 22.5867 161.996 21.872C162.284 21.1573 162.678 20.544 163.18 20.032C163.681 19.5093 164.284 19.104 164.988 18.816C165.692 18.528 166.46 18.384 167.292 18.384C167.9 18.384 168.486 18.4587 169.052 18.608C169.617 18.7467 170.118 18.976 170.556 19.296C171.004 19.6053 171.372 20.0053 171.66 20.496C171.958 20.976 172.145 21.5573 172.22 22.24H170.092C169.964 21.472 169.654 20.9173 169.164 20.576C168.684 20.2347 168.07 20.064 167.324 20.064C166.758 20.064 166.257 20.1653 165.82 20.368C165.382 20.56 165.014 20.8427 164.716 21.216C164.417 21.5787 164.188 22.016 164.028 22.528C163.868 23.04 163.788 23.6107 163.788 24.24V24.368C163.788 24.976 163.857 25.536 163.996 26.048C164.145 26.5493 164.364 26.9813 164.652 27.344C164.95 27.7067 165.318 27.9893 165.756 28.192C166.204 28.3947 166.726 28.496 167.324 28.496C167.857 28.496 168.316 28.4213 168.7 28.272C169.084 28.1227 169.398 27.92 169.644 27.664C169.889 27.3973 170.07 27.088 170.188 26.736C170.316 26.384 170.39 26.0107 170.412 25.616H167.532V24.016H172.508V25.072C172.508 25.8613 172.385 26.5707 172.14 27.2C171.905 27.8293 171.564 28.3627 171.116 28.8C170.668 29.2373 170.118 29.5733 169.468 29.808C168.828 30.0427 168.102 30.16 167.292 30.16ZM174.689 18.56H176.833V30H174.689V18.56ZM182.537 18.56H185.321L189.097 30H186.889L185.977 27.168H181.609L180.713 30H178.713L182.537 18.56ZM182.105 25.616H185.481L183.801 20.304L182.105 25.616Z" fill="black"/>
<path d="M190 35H60V37H190V35Z" fill="black"/>
</svg>
