<svg width="62" height="61" viewBox="0 0 62 61" fill="none" xmlns="http://www.w3.org/2000/svg">
<path d="M16.4973 8.1246C11.8803 8.1246 8.12451 11.8804 8.12451 16.4974C8.12451 21.1144 11.8803 24.8702 16.4973 24.8702C21.1143 24.8702 24.8701 21.1144 24.8701 16.4974C24.8706 11.8804 21.1143 8.1246 16.4973 8.1246ZM16.4973 22.5682C13.1504 22.5682 10.426 19.8449 10.426 16.4969C10.426 13.1499 13.1493 10.4255 16.4973 10.4255C19.8453 10.4255 22.5687 13.1488 22.5687 16.4969C22.5687 19.8449 19.8453 22.5682 16.4973 22.5682Z" fill="black"/>
<path d="M1.15078 17.6483H6.56744C7.20331 17.6483 7.71821 17.1334 7.71821 16.4975C7.71821 15.8616 7.20331 15.3467 6.56744 15.3467H1.15078C0.514905 15.3467 0 15.8616 0 16.4975C0 17.1334 0.514905 17.6483 1.15078 17.6483Z" fill="black"/>
<path d="M25.2764 16.4973C25.2764 17.1331 25.7913 17.648 26.4271 17.648H31.8438C32.4797 17.648 32.9946 17.1331 32.9946 16.4973C32.9946 15.8614 32.4797 15.3465 31.8438 15.3465H26.4271C25.7918 15.3465 25.2764 15.8614 25.2764 16.4973Z" fill="black"/>
<path d="M16.4974 7.71821C17.1333 7.71821 17.6482 7.20331 17.6482 6.56744L17.6487 1.15078C17.6487 0.514905 17.1338 0 16.4979 0C15.8621 0 15.3472 0.514905 15.3472 1.15078V6.56744C15.3466 7.20277 15.8615 7.71821 16.4974 7.71821Z" fill="black"/>
<path d="M15.3462 26.4273V31.844C15.3462 32.4798 15.8611 32.9947 16.497 32.9947C17.1328 32.9947 17.6477 32.4798 17.6477 31.844V26.4273C17.6477 25.7914 17.1328 25.2765 16.497 25.2765C15.8611 25.2765 15.3462 25.792 15.3462 26.4273Z" fill="black"/>
<path d="M8.66243 10.2901C8.88723 10.5149 9.18216 10.6267 9.47654 10.6267C9.77146 10.6267 10.0659 10.5149 10.2907 10.2901C10.7403 9.84101 10.7403 9.11145 10.2907 8.66237L6.46099 4.83271C6.01139 4.38311 5.28291 4.38311 4.83329 4.83271C4.38369 5.28178 4.38369 6.01133 4.83329 6.46041L8.66243 10.2901Z" fill="black"/>
<path d="M22.7044 22.7044C22.2548 23.1535 22.2548 23.8831 22.7044 24.3321L26.534 28.1618C26.7588 28.3866 27.0538 28.4985 27.3482 28.4985C27.6431 28.4985 27.9375 28.3866 28.1623 28.1618C28.6119 27.7127 28.6119 26.9832 28.1623 26.5341L24.3326 22.7044C23.8825 22.2548 23.154 22.2548 22.7044 22.7044Z" fill="black"/>
<path d="M23.5185 10.6272C23.8134 10.6272 24.1078 10.5153 24.3326 10.2905L28.1622 6.46084C28.6118 6.01177 28.6118 5.28222 28.1622 4.83314C27.7126 4.38354 26.9841 4.38354 26.5345 4.83314L22.7049 8.6628C22.2553 9.11187 22.2553 9.84142 22.7049 10.2905C22.9297 10.5148 23.2246 10.6272 23.5185 10.6272Z" fill="black"/>
<path d="M4.8313 28.162C5.0561 28.3868 5.35103 28.4987 5.64541 28.4987C5.94032 28.4987 6.23472 28.3868 6.45952 28.162L10.2892 24.3324C10.7388 23.8833 10.7388 23.1537 10.2892 22.7047C9.83958 22.2551 9.11109 22.2551 8.66148 22.7047L4.83182 26.5343C4.38167 26.9839 4.38169 27.7129 4.8313 28.162Z" fill="black"/>
<path d="M12.7921 54.6309C12.1251 55.1089 11.6846 55.8181 11.5514 56.6268C11.4181 57.4361 11.6076 58.2481 12.0845 58.9144C12.6598 59.7173 13.5928 60.1968 14.5809 60.1968C15.2248 60.1968 15.8425 59.9972 16.367 59.622L22.7841 55.0232V59.4069C22.7841 60.0422 23.299 60.5576 23.9348 60.5576C24.5707 60.5576 25.0856 60.0422 25.0856 59.4069C25.0856 59.4069 25.0733 53.4779 25.054 53.3955L35.077 46.2136C35.7439 45.7372 36.1844 45.028 36.3188 44.2192C36.4531 43.4089 36.2636 42.5969 35.7857 41.9305C35.2103 41.1276 34.2773 40.6481 33.2892 40.6481C32.6453 40.6481 32.0277 40.8477 31.5031 41.2229L12.7921 54.6309ZM33.2894 42.9502C33.5409 42.9502 33.7689 43.0675 33.9145 43.2719C34.0344 43.4384 34.081 43.6412 34.0473 43.8436C34.0141 44.0459 33.9038 44.2225 33.7374 44.3413L15.0268 57.7508C14.8609 57.8691 14.6929 57.8954 14.5821 57.8954C14.3305 57.8954 14.1025 57.7787 13.9569 57.5737C13.8381 57.4072 13.7904 57.2044 13.8241 57.0026C13.8573 56.8002 13.9676 56.6225 14.1341 56.5037L32.8446 43.0937C33.011 42.9754 33.1786 42.9502 33.2899 42.9502L33.2894 42.9502Z" fill="black"/>
<path d="M39.99 60.1968C40.6344 60.1968 41.2521 59.9972 41.7761 59.622L48.1926 55.0232V59.4069C48.1926 60.0422 48.708 60.5576 49.3434 60.5576C49.9787 60.5576 50.4942 60.0422 50.4942 59.4069C50.4942 59.4069 50.4818 53.4784 50.4636 53.3955L60.4866 46.2136C61.1535 45.7361 61.594 45.0275 61.7284 44.2177C61.8617 43.4084 61.6722 42.5953 61.1953 41.9301C60.6199 41.1272 59.6869 40.6476 58.6983 40.6476C58.0544 40.6476 57.4367 40.8473 56.9122 41.2225L38.2003 54.6314C37.5345 55.1094 37.094 55.8186 36.9602 56.6279C36.8269 57.4366 37.0153 58.2486 37.4927 58.9145C38.0687 59.7174 39.0022 60.197 39.9897 60.197L39.99 60.1968ZM39.542 56.5036L58.2525 43.0947C58.4184 42.9759 58.5865 42.9502 58.6973 42.9502C58.9483 42.9502 59.1763 43.0669 59.3225 43.2724C59.4413 43.4383 59.4889 43.6407 59.4557 43.8435C59.422 44.0458 59.3112 44.2225 59.1448 44.3413L40.4343 57.7513C40.2683 57.8696 40.1003 57.8959 39.9895 57.8959C39.7384 57.8959 39.5104 57.7792 39.3643 57.5742C39.2455 57.4077 39.1978 57.2049 39.2316 57.0025C39.2642 56.8002 39.3739 56.6225 39.5409 56.5037L39.542 56.5036Z" fill="black"/>
</svg>
