<svg width="217" height="59" viewBox="0 0 217 59" fill="none" xmlns="http://www.w3.org/2000/svg">
<circle cx="29.5" cy="29.5" r="29.5" fill="#064A3C"/>
<mask id="mask0_2809_453" style="mask-type:alpha" maskUnits="userSpaceOnUse" x="5" y="5" width="50" height="49">
<ellipse cx="24.3176" cy="23.9189" rx="24.3176" ry="23.9189" transform="matrix(-1 0 0 1 54.2163 5.58105)" fill="#FECD45"/>
</mask>
<g mask="url(#mask0_2809_453)">
<rect width="57.5516" height="56.6081" transform="matrix(-1 0 0 1 30.7095 2.39185)" fill="#FECD45"/>
</g>
<path d="M77.254 38.18C76.222 38.18 75.304 38.018 74.5 37.694C73.708 37.37 73.036 36.92 72.484 36.344C71.944 35.756 71.53 35.066 71.242 34.274C70.966 33.47 70.828 32.594 70.828 31.646V31.502C70.828 30.542 70.984 29.66 71.296 28.856C71.62 28.052 72.064 27.362 72.628 26.786C73.192 26.198 73.87 25.742 74.662 25.418C75.454 25.094 76.318 24.932 77.254 24.932C77.938 24.932 78.598 25.016 79.234 25.184C79.87 25.34 80.434 25.598 80.926 25.958C81.43 26.306 81.844 26.756 82.168 27.308C82.504 27.848 82.714 28.502 82.798 29.27H80.404C80.26 28.406 79.912 27.782 79.36 27.398C78.82 27.014 78.13 26.822 77.29 26.822C76.654 26.822 76.09 26.936 75.598 27.164C75.106 27.38 74.692 27.698 74.356 28.118C74.02 28.526 73.762 29.018 73.582 29.594C73.402 30.17 73.312 30.812 73.312 31.52V31.664C73.312 32.348 73.39 32.978 73.546 33.554C73.714 34.118 73.96 34.604 74.284 35.012C74.62 35.42 75.034 35.738 75.526 35.966C76.03 36.194 76.618 36.308 77.29 36.308C77.89 36.308 78.406 36.224 78.838 36.056C79.27 35.888 79.624 35.66 79.9 35.372C80.176 35.072 80.38 34.724 80.512 34.328C80.656 33.932 80.74 33.512 80.764 33.068H77.524V31.268H83.122V32.456C83.122 33.344 82.984 34.142 82.708 34.85C82.444 35.558 82.06 36.158 81.556 36.65C81.052 37.142 80.434 37.52 79.702 37.784C78.982 38.048 78.166 38.18 77.254 38.18ZM90.4533 38.18C88.8333 38.18 87.5853 37.754 86.7093 36.902C85.8333 36.038 85.3953 34.772 85.3953 33.104V25.13H87.8073V32.924C87.8073 34.112 88.0113 34.964 88.4193 35.48C88.8273 35.996 89.5113 36.254 90.4713 36.254C90.9393 36.254 91.3473 36.2 91.6953 36.092C92.0433 35.972 92.3313 35.78 92.5593 35.516C92.7993 35.24 92.9733 34.88 93.0813 34.436C93.2013 33.992 93.2613 33.434 93.2613 32.762V25.13H95.6733V32.96C95.6733 34.652 95.2293 35.948 94.3413 36.848C93.4653 37.736 92.1693 38.18 90.4533 38.18ZM101.349 25.13H104.481L108.729 38H106.245L105.219 34.814H100.305L99.2965 38H97.0465L101.349 25.13ZM100.863 33.068H104.661L102.771 27.092L100.863 33.068ZM110.763 25.13H115.083C115.791 25.13 116.439 25.208 117.027 25.364C117.615 25.508 118.119 25.736 118.539 26.048C118.971 26.348 119.301 26.738 119.529 27.218C119.769 27.686 119.889 28.25 119.889 28.91V28.982C119.889 29.486 119.811 29.93 119.655 30.314C119.511 30.698 119.307 31.034 119.043 31.322C118.791 31.598 118.491 31.826 118.143 32.006C117.795 32.186 117.423 32.33 117.027 32.438L120.645 38H118.053L114.687 32.798H113.157V38H110.763V25.13ZM115.083 31.088C116.715 31.088 117.531 30.404 117.531 29.036V28.964C117.531 28.22 117.315 27.704 116.883 27.416C116.451 27.128 115.851 26.984 115.083 26.984H113.157V31.088H115.083ZM125.94 25.13H129.072L133.32 38H130.836L129.81 34.814H124.896L123.888 38H121.638L125.94 25.13ZM125.454 33.068H129.252L127.362 27.092L125.454 33.068ZM139.714 25.13H147.76V27.02H142.108V30.548H146.644V32.348H142.108V36.11H148.066V38H139.714V25.13ZM150.296 25.13H153.158L158.576 34.436V25.13H160.754V38H158.27L152.474 28.136V38H150.296V25.13ZM163.779 25.13H171.825V27.02H166.173V30.548H170.709V32.348H166.173V36.11H172.131V38H163.779V25.13ZM174.361 25.13H178.681C179.389 25.13 180.037 25.208 180.625 25.364C181.213 25.508 181.717 25.736 182.137 26.048C182.569 26.348 182.899 26.738 183.127 27.218C183.367 27.686 183.487 28.25 183.487 28.91V28.982C183.487 29.486 183.409 29.93 183.253 30.314C183.109 30.698 182.905 31.034 182.641 31.322C182.389 31.598 182.089 31.826 181.741 32.006C181.393 32.186 181.021 32.33 180.625 32.438L184.243 38H181.651L178.285 32.798H176.755V38H174.361V25.13ZM178.681 31.088C180.313 31.088 181.129 30.404 181.129 29.036V28.964C181.129 28.22 180.913 27.704 180.481 27.416C180.049 27.128 179.449 26.984 178.681 26.984H176.755V31.088H178.681ZM191.828 38.18C190.796 38.18 189.878 38.018 189.074 37.694C188.282 37.37 187.61 36.92 187.058 36.344C186.518 35.756 186.104 35.066 185.816 34.274C185.54 33.47 185.402 32.594 185.402 31.646V31.502C185.402 30.542 185.558 29.66 185.87 28.856C186.194 28.052 186.638 27.362 187.202 26.786C187.766 26.198 188.444 25.742 189.236 25.418C190.028 25.094 190.892 24.932 191.828 24.932C192.512 24.932 193.172 25.016 193.808 25.184C194.444 25.34 195.008 25.598 195.5 25.958C196.004 26.306 196.418 26.756 196.742 27.308C197.078 27.848 197.288 28.502 197.372 29.27H194.978C194.834 28.406 194.486 27.782 193.934 27.398C193.394 27.014 192.704 26.822 191.864 26.822C191.228 26.822 190.664 26.936 190.172 27.164C189.68 27.38 189.266 27.698 188.93 28.118C188.594 28.526 188.336 29.018 188.156 29.594C187.976 30.17 187.886 30.812 187.886 31.52V31.664C187.886 32.348 187.964 32.978 188.12 33.554C188.288 34.118 188.534 34.604 188.858 35.012C189.194 35.42 189.608 35.738 190.1 35.966C190.604 36.194 191.192 36.308 191.864 36.308C192.464 36.308 192.98 36.224 193.412 36.056C193.844 35.888 194.198 35.66 194.474 35.372C194.75 35.072 194.954 34.724 195.086 34.328C195.23 33.932 195.314 33.512 195.338 33.068H192.098V31.268H197.696V32.456C197.696 33.344 197.558 34.142 197.282 34.85C197.018 35.558 196.634 36.158 196.13 36.65C195.626 37.142 195.008 37.52 194.276 37.784C193.556 38.048 192.74 38.18 191.828 38.18ZM200.15 25.13H202.562V38H200.15V25.13ZM208.979 25.13H212.111L216.359 38H213.875L212.849 34.814H207.935L206.927 38H204.677L208.979 25.13ZM208.493 33.068H212.291L210.401 27.092L208.493 33.068Z" fill="white"/>
<rect x="71" y="42" width="146" height="2" fill="white"/>
</svg>
