<svg width="52" height="50" viewBox="0 0 52 50" fill="none" xmlns="http://www.w3.org/2000/svg">
<path d="M50.4552 48.1221H0.874782C0.391415 48.1221 0 48.5139 0 48.9969C0 49.4798 0.391415 49.8716 0.874782 49.8716H50.4552C50.9382 49.8716 51.33 49.4798 51.33 48.9969C51.33 48.5139 50.9382 48.1221 50.4552 48.1221Z" fill="black"/>
<path d="M14.874 32.2272C14.874 29.7346 12.8457 27.7068 10.3536 27.7068C7.86105 27.7068 5.83325 29.7347 5.83325 32.2272V41.1223H14.8745L14.874 32.2272ZM13.1244 39.3728H7.58273V32.2272C7.58273 30.6994 8.82578 29.4563 10.3536 29.4563C11.8814 29.4563 13.1245 30.6994 13.1245 32.2272L13.1244 39.3728Z" fill="black"/>
<path d="M30.1855 32.2272C30.1855 29.7346 28.1572 27.7068 25.6651 27.7068C23.1726 27.7068 21.1448 29.7351 21.1448 32.2272V41.1223H30.186L30.1855 32.2272ZM28.4359 39.3728H22.8947L22.8943 32.2272C22.8943 30.6994 24.1373 29.4563 25.6651 29.4563C27.193 29.4563 28.436 30.6994 28.436 32.2272L28.4359 39.3728Z" fill="black"/>
<path d="M45.4973 32.2272C45.4973 29.7346 43.4689 27.7068 40.9769 27.7068C38.4843 27.7068 36.4565 29.7351 36.4565 32.2272V41.1223H45.4974L45.4973 32.2272ZM43.7477 39.3728H38.2064L38.206 32.2272C38.206 30.6994 39.4491 29.4563 40.9769 29.4563C42.5047 29.4563 43.7478 30.6994 43.7478 32.2272L43.7477 39.3728Z" fill="black"/>
<path d="M2.91639 46.9554H48.4137C49.2181 46.9554 49.872 46.3016 49.872 45.4972V18.9571C49.872 18.2227 49.3382 17.6693 48.6302 17.6693C48.4678 17.6693 48.3043 17.6999 48.1435 17.7597L34.3173 22.9445V18.9575C34.3173 18.2231 33.7835 17.6698 33.0755 17.6698C32.9131 17.6698 32.7496 17.7003 32.5888 17.7601L18.7626 22.9449V18.9575C18.7626 18.2231 18.2287 17.6698 17.5212 17.6698C17.3584 17.6698 17.1945 17.7003 17.0341 17.7601L13.4158 19.1166V7.29126C13.4158 6.48726 12.7616 5.83301 11.9576 5.83301H8.74973C7.94574 5.83301 7.29148 6.48726 7.29148 7.29126L7.31305 21.405L2.57333 23.1822C1.92721 23.4243 1.4585 24.1001 1.4585 24.7898V45.4969C1.4585 46.3009 2.11275 46.9548 2.91674 46.9548L2.91639 46.9554ZM7.9263 23.0433C8.57201 22.8012 9.04072 22.1254 9.04072 21.4357V7.58233H11.6659V19.7952C11.6659 20.1345 11.7839 20.4506 11.9967 20.6854C12.3368 21.0597 12.8845 21.1834 13.3943 20.993L17.0126 19.6361V23.6231C17.0126 23.9624 17.1306 24.2785 17.3434 24.5133C17.6836 24.8876 18.2312 25.0113 18.741 24.8209L32.5673 19.6361V23.6231C32.5673 24.3575 33.1011 24.9108 33.8091 24.9108C33.9715 24.9108 34.135 24.8803 34.2958 24.8205L48.122 19.6361V45.2054H3.20798L3.18683 24.8212L7.9263 23.0433Z" fill="black"/>
<path d="M11.0825 4.66606C11.5659 4.66606 11.9573 4.27464 11.9573 3.79128C11.9573 2.6654 12.8731 1.74952 13.999 1.74952C14.3204 1.74952 14.5825 2.01155 14.5825 2.33299C14.5825 2.39361 14.589 2.4526 14.6004 2.50957C14.6879 3.65294 15.5956 4.56101 16.7393 4.64851C16.7963 4.66031 16.8553 4.66641 16.9159 4.66641C16.9765 4.66641 17.0355 4.6599 17.0925 4.64851C18.2948 4.55655 19.2485 3.55888 19.2485 2.33302C19.2485 1.84965 18.8571 1.45823 18.3737 1.45823C17.8904 1.45823 17.4989 1.84965 17.4989 2.33302C17.4989 2.65445 17.2369 2.91648 16.9155 2.91648C16.594 2.91648 16.332 2.65446 16.332 2.33302C16.332 2.27239 16.3255 2.2134 16.3141 2.15643C16.2266 1.01306 15.3189 0.104991 14.1752 0.0174957C14.1186 0.00610264 14.0596 0 13.999 0C11.9085 0 10.2078 1.70073 10.2078 3.79124C10.2078 4.2746 10.5991 4.66606 11.0825 4.66606Z" fill="black"/>
</svg>
