<svg width="224" height="59" viewBox="0 0 224 59" fill="none" xmlns="http://www.w3.org/2000/svg">
<circle cx="29.5" cy="29.5" r="29.5" fill="#064A3C"/>
<mask id="mask0_2809_453" style="mask-type:alpha" maskUnits="userSpaceOnUse" x="5" y="5" width="50" height="49">
<ellipse cx="24.3176" cy="23.9189" rx="24.3176" ry="23.9189" transform="matrix(-1 0 0 1 54.2163 5.58105)" fill="#FECD45"/>
</mask>
<g mask="url(#mask0_2809_453)">
<rect width="57.5516" height="56.6081" transform="matrix(-1 0 0 1 30.7095 2.39185)" fill="#FECD45"/>
</g>
<path d="M77.11 38.18C76.102 38.18 75.208 38.024 74.428 37.712C73.648 37.4 72.988 36.962 72.448 36.398C71.92 35.834 71.518 35.15 71.242 34.346C70.966 33.542 70.828 32.642 70.828 31.646V31.502C70.828 30.53 70.984 29.642 71.296 28.838C71.608 28.034 72.04 27.344 72.592 26.768C73.156 26.192 73.816 25.742 74.572 25.418C75.34 25.094 76.174 24.932 77.074 24.932C77.806 24.932 78.49 25.028 79.126 25.22C79.774 25.4 80.344 25.676 80.836 26.048C81.328 26.42 81.724 26.888 82.024 27.452C82.336 28.016 82.528 28.676 82.6 29.432H80.17C80.038 28.568 79.726 27.92 79.234 27.488C78.742 27.056 78.028 26.84 77.092 26.84C76.528 26.84 76.012 26.948 75.544 27.164C75.088 27.38 74.698 27.686 74.374 28.082C74.05 28.478 73.798 28.964 73.618 29.54C73.438 30.116 73.348 30.764 73.348 31.484V31.628C73.348 33.08 73.672 34.214 74.32 35.03C74.98 35.834 75.91 36.236 77.11 36.236C78.01 36.236 78.748 36.014 79.324 35.57C79.912 35.114 80.272 34.43 80.404 33.518H82.744C82.648 34.298 82.444 34.982 82.132 35.57C81.82 36.146 81.418 36.626 80.926 37.01C80.446 37.394 79.882 37.688 79.234 37.892C78.586 38.084 77.878 38.18 77.11 38.18ZM90.7921 36.254C91.4041 36.254 91.9501 36.146 92.4301 35.93C92.9221 35.702 93.3361 35.384 93.6721 34.976C94.0201 34.568 94.2841 34.082 94.4641 33.518C94.6561 32.942 94.7521 32.306 94.7521 31.61V31.466C94.7521 30.806 94.6621 30.194 94.4821 29.63C94.3021 29.066 94.0381 28.58 93.6901 28.172C93.3541 27.764 92.9341 27.446 92.4301 27.218C91.9381 26.978 91.3801 26.858 90.7561 26.858C90.1201 26.858 89.5561 26.972 89.0641 27.2C88.5721 27.416 88.1521 27.728 87.8041 28.136C87.4561 28.544 87.1921 29.03 87.0121 29.594C86.8321 30.158 86.7421 30.788 86.7421 31.484V31.628C86.7421 32.336 86.8441 32.972 87.0481 33.536C87.2521 34.1 87.5341 34.586 87.8941 34.994C88.2541 35.402 88.6801 35.714 89.1721 35.93C89.6641 36.146 90.2041 36.254 90.7921 36.254ZM90.7561 38.18C89.7721 38.18 88.8781 38.018 88.0741 37.694C87.2701 37.358 86.5861 36.896 86.0221 36.308C85.4581 35.72 85.0201 35.03 84.7081 34.238C84.3961 33.434 84.2401 32.57 84.2401 31.646V31.502C84.2401 30.566 84.3961 29.696 84.7081 28.892C85.0321 28.088 85.4821 27.398 86.0581 26.822C86.6341 26.234 87.3181 25.778 88.1101 25.454C88.9141 25.118 89.7961 24.95 90.7561 24.95C91.7161 24.95 92.5921 25.112 93.3841 25.436C94.1761 25.76 94.8541 26.21 95.4181 26.786C95.9941 27.362 96.4381 28.046 96.7501 28.838C97.0741 29.63 97.2361 30.5 97.2361 31.448V31.592C97.2361 32.528 97.0801 33.398 96.7681 34.202C96.4681 35.006 96.0301 35.702 95.4541 36.29C94.8901 36.878 94.2061 37.34 93.4021 37.676C92.6101 38.012 91.7281 38.18 90.7561 38.18ZM103.817 38.18C102.941 38.18 102.185 38.078 101.549 37.874C100.925 37.658 100.403 37.37 99.9828 37.01C99.5748 36.638 99.2628 36.2 99.0468 35.696C98.8308 35.18 98.6988 34.616 98.6508 34.004H100.955C100.991 34.328 101.057 34.634 101.153 34.922C101.261 35.21 101.417 35.462 101.621 35.678C101.837 35.894 102.119 36.068 102.467 36.2C102.827 36.32 103.277 36.38 103.817 36.38C104.537 36.38 105.119 36.2 105.563 35.84C106.019 35.48 106.247 35 106.247 34.4C106.247 34.1 106.205 33.848 106.121 33.644C106.037 33.428 105.893 33.248 105.689 33.104C105.485 32.948 105.209 32.816 104.861 32.708C104.513 32.6 104.081 32.504 103.565 32.42C102.797 32.312 102.125 32.174 101.549 32.006C100.985 31.826 100.517 31.592 100.145 31.304C99.7728 31.004 99.4908 30.638 99.2988 30.206C99.1188 29.774 99.0288 29.258 99.0288 28.658C99.0288 28.13 99.1368 27.644 99.3528 27.2C99.5688 26.744 99.8688 26.354 100.253 26.03C100.649 25.694 101.123 25.436 101.675 25.256C102.227 25.064 102.839 24.968 103.511 24.968C104.903 24.968 105.995 25.28 106.787 25.904C107.591 26.528 108.059 27.458 108.191 28.694H105.995C105.875 28.01 105.617 27.518 105.221 27.218C104.825 26.918 104.255 26.768 103.511 26.768C102.779 26.768 102.227 26.924 101.855 27.236C101.483 27.548 101.297 27.956 101.297 28.46C101.297 28.724 101.327 28.958 101.387 29.162C101.459 29.354 101.591 29.528 101.783 29.684C101.987 29.828 102.257 29.954 102.593 30.062C102.941 30.17 103.397 30.266 103.961 30.35C104.717 30.458 105.377 30.596 105.941 30.764C106.517 30.932 106.997 31.166 107.381 31.466C107.777 31.766 108.071 32.138 108.263 32.582C108.455 33.014 108.551 33.554 108.551 34.202C108.551 34.766 108.437 35.288 108.209 35.768C107.981 36.248 107.657 36.668 107.237 37.028C106.829 37.388 106.331 37.67 105.743 37.874C105.167 38.078 104.525 38.18 103.817 38.18ZM110.939 25.13H114.143L117.527 33.914L120.839 25.13H124.007V38H121.613V28.28L117.779 38H117.005L113.099 28.28V38H110.939V25.13ZM132.927 36.254C133.539 36.254 134.085 36.146 134.565 35.93C135.057 35.702 135.471 35.384 135.807 34.976C136.155 34.568 136.419 34.082 136.599 33.518C136.791 32.942 136.887 32.306 136.887 31.61V31.466C136.887 30.806 136.797 30.194 136.617 29.63C136.437 29.066 136.173 28.58 135.825 28.172C135.489 27.764 135.069 27.446 134.565 27.218C134.073 26.978 133.515 26.858 132.891 26.858C132.255 26.858 131.691 26.972 131.199 27.2C130.707 27.416 130.287 27.728 129.939 28.136C129.591 28.544 129.327 29.03 129.147 29.594C128.967 30.158 128.877 30.788 128.877 31.484V31.628C128.877 32.336 128.979 32.972 129.183 33.536C129.387 34.1 129.669 34.586 130.029 34.994C130.389 35.402 130.815 35.714 131.307 35.93C131.799 36.146 132.339 36.254 132.927 36.254ZM132.891 38.18C131.907 38.18 131.013 38.018 130.209 37.694C129.405 37.358 128.721 36.896 128.157 36.308C127.593 35.72 127.155 35.03 126.843 34.238C126.531 33.434 126.375 32.57 126.375 31.646V31.502C126.375 30.566 126.531 29.696 126.843 28.892C127.167 28.088 127.617 27.398 128.193 26.822C128.769 26.234 129.453 25.778 130.245 25.454C131.049 25.118 131.931 24.95 132.891 24.95C133.851 24.95 134.727 25.112 135.519 25.436C136.311 25.76 136.989 26.21 137.553 26.786C138.129 27.362 138.573 28.046 138.885 28.838C139.209 29.63 139.371 30.5 139.371 31.448V31.592C139.371 32.528 139.215 33.398 138.903 34.202C138.603 35.006 138.165 35.702 137.589 36.29C137.025 36.878 136.341 37.34 135.537 37.676C134.745 38.012 133.863 38.18 132.891 38.18ZM146.113 25.13H154.159V27.02H148.507V30.548H153.043V32.348H148.507V36.11H154.465V38H146.113V25.13ZM156.695 25.13H159.557L164.975 34.436V25.13H167.153V38H164.669L158.873 28.136V38H156.695V25.13ZM170.177 25.13H178.223V27.02H172.571V30.548H177.107V32.348H172.571V36.11H178.529V38H170.177V25.13ZM180.759 25.13H185.079C185.787 25.13 186.435 25.208 187.023 25.364C187.611 25.508 188.115 25.736 188.535 26.048C188.967 26.348 189.297 26.738 189.525 27.218C189.765 27.686 189.885 28.25 189.885 28.91V28.982C189.885 29.486 189.807 29.93 189.651 30.314C189.507 30.698 189.303 31.034 189.039 31.322C188.787 31.598 188.487 31.826 188.139 32.006C187.791 32.186 187.419 32.33 187.023 32.438L190.641 38H188.049L184.683 32.798H183.153V38H180.759V25.13ZM185.079 31.088C186.711 31.088 187.527 30.404 187.527 29.036V28.964C187.527 28.22 187.311 27.704 186.879 27.416C186.447 27.128 185.847 26.984 185.079 26.984H183.153V31.088H185.079ZM198.227 38.18C197.195 38.18 196.277 38.018 195.473 37.694C194.681 37.37 194.009 36.92 193.457 36.344C192.917 35.756 192.503 35.066 192.215 34.274C191.939 33.47 191.801 32.594 191.801 31.646V31.502C191.801 30.542 191.957 29.66 192.269 28.856C192.593 28.052 193.037 27.362 193.601 26.786C194.165 26.198 194.843 25.742 195.635 25.418C196.427 25.094 197.291 24.932 198.227 24.932C198.911 24.932 199.571 25.016 200.207 25.184C200.843 25.34 201.407 25.598 201.899 25.958C202.403 26.306 202.817 26.756 203.141 27.308C203.477 27.848 203.687 28.502 203.771 29.27H201.377C201.233 28.406 200.885 27.782 200.333 27.398C199.793 27.014 199.103 26.822 198.263 26.822C197.627 26.822 197.063 26.936 196.571 27.164C196.079 27.38 195.665 27.698 195.329 28.118C194.993 28.526 194.735 29.018 194.555 29.594C194.375 30.17 194.285 30.812 194.285 31.52V31.664C194.285 32.348 194.363 32.978 194.519 33.554C194.687 34.118 194.933 34.604 195.257 35.012C195.593 35.42 196.007 35.738 196.499 35.966C197.003 36.194 197.591 36.308 198.263 36.308C198.863 36.308 199.379 36.224 199.811 36.056C200.243 35.888 200.597 35.66 200.873 35.372C201.149 35.072 201.353 34.724 201.485 34.328C201.629 33.932 201.713 33.512 201.737 33.068H198.497V31.268H204.095V32.456C204.095 33.344 203.957 34.142 203.681 34.85C203.417 35.558 203.033 36.158 202.529 36.65C202.025 37.142 201.407 37.52 200.675 37.784C199.955 38.048 199.139 38.18 198.227 38.18ZM206.548 25.13H208.96V38H206.548V25.13ZM215.378 25.13H218.51L222.758 38H220.274L219.248 34.814H214.334L213.326 38H211.076L215.378 25.13ZM214.892 33.068H218.69L216.8 27.092L214.892 33.068Z" fill="white"/>
<rect x="71" y="42" width="152" height="2" fill="white"/>
</svg>
