<svg width="142" height="68" viewBox="0 0 142 68" fill="none" xmlns="http://www.w3.org/2000/svg">
<path d="M85.9843 31.3801V25.477H80.3212V27.3967H83.9046C83.7767 28.1966 82.9608 29.6044 80.8651 29.6044C78.9614 29.6044 77.2817 28.2766 77.2817 25.717C77.2817 23.0294 79.1374 21.8615 80.8491 21.8615C82.6888 21.8615 83.6327 23.0294 83.9206 24.0372L86.0323 23.2853C85.4724 21.5416 83.8247 19.7979 80.8491 19.7979C77.7776 19.7979 75.042 22.0535 75.042 25.717C75.042 29.3804 77.6496 31.6201 80.7051 31.6201C82.4169 31.6201 83.5367 30.8522 84.0486 30.0843L84.1926 31.3801H85.9843Z" fill="black"/>
<path d="M92.1824 31.6361C94.614 31.6361 96.5497 30.1483 96.5497 27.3647V20.0378H94.3421V27.2047C94.3421 28.6925 93.5262 29.4764 92.1824 29.4764C90.8706 29.4764 90.0387 28.6925 90.0387 27.2047V20.0378H87.8311V27.3647C87.8311 30.1483 89.7668 31.6361 92.1824 31.6361Z" fill="black"/>
<path d="M106.074 31.3801H108.474L104.154 20.0378H101.595L97.2435 31.3801H99.5792L100.523 28.7885H105.13L106.074 31.3801ZM102.827 22.4854L104.394 26.7728H101.259L102.827 22.4854Z" fill="black"/>
<path d="M115.195 31.3801H117.658L115.227 26.7408C116.715 26.3089 117.642 25.109 117.642 23.5253C117.642 21.5576 116.235 20.0378 114.027 20.0378H109.596V31.3801H111.819V27.0128H112.971L115.195 31.3801ZM111.819 25.109V21.9575H113.611C114.731 21.9575 115.387 22.5814 115.387 23.5413C115.387 24.4691 114.731 25.109 113.611 25.109H111.819Z" fill="black"/>
<path d="M127.008 31.3801H129.408L125.089 20.0378H122.529L118.178 31.3801H120.513L121.457 28.7885H126.065L127.008 31.3801ZM123.761 22.4854L125.329 26.7728H122.193L123.761 22.4854Z" fill="black"/>
<path d="M82.6568 47.3777V45.298H77.7616V42.6744H82.1929V40.7067H77.7616V38.1151H82.6568V36.0354H75.5539V47.3777H82.6568Z" fill="black"/>
<path d="M94.1842 47.3777V36.0354H91.9766V43.5383L87.2573 36.0354H84.5057V47.3777H86.7133V39.3309L91.8646 47.3777H94.1842Z" fill="black"/>
<path d="M103.497 47.3777V45.298H98.6022V42.6744H103.034V40.7067H98.6022V38.1151H103.497V36.0354H96.3945V47.3777H103.497Z" fill="black"/>
<path d="M110.945 47.3777H113.409L110.977 42.7384C112.465 42.3064 113.393 41.1066 113.393 39.5229C113.393 37.5552 111.985 36.0354 109.778 36.0354H105.346V47.3777H107.57V43.0103H108.722L110.945 47.3777ZM107.57 41.1066V37.9551H109.362C110.481 37.9551 111.137 38.579 111.137 39.5389C111.137 40.4667 110.481 41.1066 109.362 41.1066H107.57Z" fill="black"/>
<path d="M125.478 47.3777V41.4746H119.815V43.3943H123.399C123.271 44.1942 122.455 45.6019 120.359 45.6019C118.455 45.6019 116.776 44.2741 116.776 41.7145C116.776 39.0269 118.631 37.8591 120.343 37.8591C122.183 37.8591 123.127 39.0269 123.415 40.0348L125.526 39.2829C124.966 37.5392 123.319 35.7954 120.343 35.7954C117.272 35.7954 114.536 38.0511 114.536 41.7145C114.536 45.378 117.144 47.6176 120.199 47.6176C121.911 47.6176 123.031 46.8498 123.543 46.0819L123.687 47.3777H125.478Z" fill="black"/>
<path d="M129.661 47.3777V36.0354H127.421V47.3777H129.661Z" fill="black"/>
<path d="M139.6 47.3777H142L137.681 36.0354H135.121L130.77 47.3777H133.105L134.049 44.7861H138.656L139.6 47.3777ZM136.353 38.483L137.921 42.7704H134.785L136.353 38.483Z" fill="black"/>
<path fill-rule="evenodd" clip-rule="evenodd" d="M29.306 0.140474C27.9295 0.256931 26.2429 0.545814 24.6537 0.937468C23.2212 1.29051 22.756 1.46122 22.756 1.63389C22.756 1.76196 26.8123 14.1112 29.3079 21.581C30.6289 25.5348 30.6962 25.7004 30.6986 25.0026C30.7001 24.5993 30.7308 21.8773 30.767 18.9537C30.8032 16.03 30.8356 10.9709 30.839 7.71118C30.848 -0.812325 30.8711 0.00971911 30.6221 0.0300044C30.5043 0.0395361 29.912 0.089272 29.306 0.140474ZM34.2017 0.137175C34.0829 0.328908 33.9939 25.8529 34.1123 25.7358C34.1803 25.6686 34.4956 24.7887 34.813 23.7806C35.6801 21.0262 37.4109 15.6328 37.8719 14.2489C38.0957 13.5768 38.648 11.8721 39.099 10.4607C39.5501 9.04928 40.1377 7.2346 40.4049 6.42807C41.1052 4.31351 41.6106 2.72502 41.7943 2.0611L41.9543 1.48248L41.1395 1.24725C38.674 0.535671 34.3803 -0.151341 34.2017 0.137175ZM18.3936 3.23545C16.6491 4.08292 13.6155 5.98021 12.5415 6.89549L12.0601 7.30584L13.0625 8.88321C13.614 9.75083 14.5851 11.2581 15.2206 12.2326C15.8562 13.2072 16.7757 14.6369 17.2638 15.4098C17.7521 16.1827 18.5457 17.42 19.0275 18.1593C19.5093 18.8987 20.204 19.971 20.5712 20.5423C22.1257 22.9603 24.359 26.4077 26.0382 28.9811C27.0274 30.4971 28.4637 32.7126 29.2297 33.9044C29.9959 35.0963 30.6417 36.0524 30.6649 36.0291C30.7184 35.9759 28.3153 28.6674 21.8157 9.11649C19.4706 2.06245 19.6929 2.70095 19.5814 2.70095C19.5333 2.70095 18.9988 2.94144 18.3936 3.23545ZM44.9293 2.9759C44.7632 3.4201 43.4293 7.48939 42.1556 11.4383C41.5052 13.4546 40.6791 16.0117 40.3198 17.1206C39.9605 18.2296 39.3825 20.0443 39.0352 21.1533C38.688 22.2622 38.0817 24.1594 37.6879 25.3692C37.2941 26.579 36.4415 29.2735 35.7931 31.357C35.1449 33.4406 34.5359 35.3883 34.4398 35.6854C34.3437 35.9823 34.287 36.2473 34.3138 36.274C34.3633 36.3234 35.3333 34.8693 38.3094 30.2851C39.2158 28.8889 40.5518 26.8362 41.2786 25.7236C42.0053 24.6108 42.8654 23.2786 43.19 22.7629C43.5144 22.2472 44.5767 20.6156 45.5504 19.137C49.3872 13.3108 52.9961 7.71399 52.9961 7.58959C52.9961 7.44698 50.3908 5.54957 49.2008 4.82553C47.9996 4.09477 45.3372 2.70095 45.1425 2.70095C45.0817 2.70095 44.9859 2.82474 44.9293 2.9759ZM8.55039 10.6653C7.41364 11.9432 6.43873 13.2171 5.4555 14.7088C4.73023 15.8092 4.0243 17.1387 4.0243 17.4043C4.0243 17.551 5.30834 18.8018 8.18604 21.4582C8.62336 21.8618 9.53313 22.7144 10.2078 23.3529C10.8826 23.9914 12.6459 25.6119 14.1263 26.9541C15.6069 28.2963 16.8457 29.425 16.8794 29.4626C16.9666 29.5596 25.2992 37.301 28.0601 39.85C29.3341 41.0262 30.4541 42.0334 30.5489 42.0882C30.6436 42.1432 30.1881 41.3733 29.5363 40.3774C28.8846 39.3816 28.1477 38.2369 27.8988 37.8337C27.443 37.0953 23.5307 31.0256 21.7551 28.302C20.8303 26.8834 19.387 24.6606 18.204 22.8329C17.8888 22.3459 17.3866 21.5626 17.088 21.0922C16.7895 20.6217 16.0988 19.5494 15.5532 18.7093C15.0076 17.8691 13.8957 16.1369 13.0821 14.8599C10.7328 11.1722 9.84166 9.80277 9.69792 9.6593C9.60096 9.56252 9.28423 9.84016 8.55039 10.6653ZM54.6397 11.1493C54.191 11.846 53.3014 13.2133 52.6629 14.1878C52.0245 15.1624 50.5297 17.4464 49.3413 19.2636C48.153 21.0807 45.8511 24.6001 44.226 27.0844C41.5296 31.2065 38.2299 36.2983 36.4828 39.0328C36.1044 39.6251 35.5593 40.4775 35.2717 40.9269C34.265 42.4995 34.2775 42.5417 35.4391 41.4925C39.4392 37.8796 41.3852 36.1056 45.8769 31.9774C48.6615 29.4182 51.3382 26.967 51.8256 26.5301C52.7517 25.6999 58.1375 20.636 60.0312 18.815C61.1135 17.7742 61.1264 17.7549 60.9704 17.4096C60.4018 16.1513 58.2916 13.0495 56.9079 11.4383C55.3654 9.6422 55.5919 9.67116 54.6397 11.1493ZM2.30184 20.8696C1.09591 24.0322 0.115985 28.2361 0.108762 30.2787L0.106559 30.9114L1.85118 31.8212C2.81078 32.3216 4.4222 33.1579 5.43224 33.6796C6.44228 34.2011 7.81961 34.9159 8.49297 35.2678C12.2795 37.2465 15.6989 39.0168 18.4098 40.4017C20.0932 41.2619 22.3795 42.4299 23.4906 42.9975C24.6016 43.565 26.6299 44.6068 27.9979 45.3126C29.3658 46.0183 30.5117 46.5692 30.5441 46.5368C30.5765 46.5044 30.3321 46.2377 30.0006 45.944C29.3438 45.3619 25.1729 41.5084 23.7966 40.2121C20.4127 37.0248 12.4248 29.6481 8.85696 26.4156C8.51856 26.1089 7.08614 24.7765 5.67379 23.4548C4.26157 22.1331 2.95463 20.9332 2.76964 20.7884L2.43321 20.5249L2.30184 20.8696ZM61.7383 21.6468C60.1769 23.12 56.9916 26.0989 55.0075 27.9413C50.6577 31.9806 49.9093 32.6734 47.746 34.6635C46.5083 35.8022 45.17 37.0215 44.7721 37.373C44.3742 37.7246 42.7425 39.2108 41.146 40.6758C39.5495 42.1409 37.4038 44.0941 36.3779 45.0164C35.3519 45.9386 34.5319 46.6932 34.5555 46.6932C34.7421 46.6932 51.6349 38.3103 61.3022 33.4203L65.1396 31.4792L65.0619 30.5016C64.8426 27.7459 63.9002 23.9209 62.8192 21.3983L62.5839 20.8491L61.7383 21.6468ZM0.0404466 35.7868C0.162631 37.4933 0.550488 39.7857 1.02747 41.6219C1.44459 43.2276 2.0991 45.3218 2.30245 45.701C2.42537 45.9302 2.43419 45.9319 9.16634 46.9927C11.4894 47.3589 15.346 47.9678 17.7364 48.3461C20.1268 48.7243 23.3222 49.2238 24.8373 49.4561C26.3524 49.6883 28.2531 49.9801 29.0611 50.1045C29.8691 50.229 30.5461 50.3169 30.5653 50.2999C30.6307 50.2422 21.8183 45.6461 15.1042 42.2361C8.2011 38.73 5.21529 37.1975 2.73879 35.8895C1.39207 35.1781 0.214786 34.596 0.122596 34.5957C-0.0136675 34.5955 -0.0289709 34.8184 0.0404466 35.7868ZM61.4437 36.9904C52.6623 41.4579 45.7527 44.9185 40.5083 47.4754C37.3771 49.002 34.7706 50.2951 34.7161 50.3491C34.6615 50.4031 34.9094 50.4007 35.2671 50.3436C36.0959 50.2114 43.3808 49.1662 51.7106 47.9844C59.5373 46.874 62.8011 46.3649 62.9321 46.2341C62.9859 46.1804 63.192 45.67 63.3897 45.1002C64.2099 42.7378 64.7494 40.326 64.988 37.9559C65.0625 37.2166 65.1549 36.2955 65.1932 35.909C65.2472 35.3655 65.2257 35.2073 65.098 35.2108C65.0072 35.2132 63.3628 36.014 61.4437 36.9904ZM4.14673 49.6621C4.14673 49.8281 5.25129 51.6558 6.08185 52.8644C8.42331 56.2711 11.8184 59.5807 15.2484 61.7996C18.204 63.7115 22.2827 65.4652 25.579 66.2411C26.9436 66.5624 29.6373 66.9756 30.3772 66.9772L30.9588 66.9786V60.3894V53.8003L30.6221 53.731C30.3466 53.6743 27.3323 53.1828 21.9602 52.3186C21.5562 52.2536 20.84 52.144 20.3686 52.075C19.8973 52.006 18.1618 51.7322 16.5121 51.4665C14.8624 51.2009 12.2179 50.7872 10.6355 50.5472C9.05309 50.3072 7.26256 50.0326 6.65653 49.9372C5.09801 49.6916 4.14673 49.5873 4.14673 49.6621ZM56.6077 50.6073C54.3856 50.9357 52.1544 51.2601 51.6493 51.3282C47.0955 51.9422 40.3598 52.9042 37.9372 53.2865C37.0282 53.4299 35.8437 53.6168 35.305 53.7016L34.3256 53.8559L34.2613 54.6433C34.1952 55.4523 34.2385 66.9935 34.3079 67.0628C34.3291 67.084 35.1683 67.0185 36.1726 66.9172C45.1671 66.0101 53.1347 61.5323 58.5426 54.3454C59.639 52.8884 61.1988 50.371 61.1988 50.0586C61.1988 49.9422 60.7228 49.9991 56.6077 50.6073Z" fill="#064A3C"/>
</svg>
