<svg width="140" height="66" viewBox="0 0 140 66" fill="none" xmlns="http://www.w3.org/2000/svg">
<path d="M84.6169 30.8809V25.0717H79.0439V26.9609H82.5703C82.4444 27.748 81.6415 29.1334 79.5791 29.1334C77.7057 29.1334 76.0527 27.8268 76.0527 25.3079C76.0527 22.663 77.8789 21.5138 79.5634 21.5138C81.3738 21.5138 82.3027 22.663 82.5861 23.6548L84.6642 22.9149C84.1131 21.1989 82.4916 19.4829 79.5634 19.4829C76.5407 19.4829 73.8486 21.7027 73.8486 25.3079C73.8486 28.913 76.4148 31.1171 79.4217 31.1171C81.1062 31.1171 82.2082 30.3614 82.712 29.6057L82.8537 30.8809H84.6169Z" fill="white"/>
<path d="M90.7164 31.1328C93.1094 31.1328 95.0143 29.6687 95.0143 26.9294V19.7191H92.8417V26.772C92.8417 28.2361 92.0388 29.0075 90.7164 29.0075C89.4255 29.0075 88.6068 28.2361 88.6068 26.772V19.7191H86.4343V26.9294C86.4343 29.6687 88.3392 31.1328 90.7164 31.1328Z" fill="white"/>
<path d="M104.387 30.8809H106.749L102.498 19.7191H99.9791L95.697 30.8809H97.9955L98.9243 28.3305H103.458L104.387 30.8809ZM101.191 22.1278L102.734 26.3469H99.6485L101.191 22.1278Z" fill="white"/>
<path d="M113.363 30.8809H115.787L113.394 26.3154C114.858 25.8904 115.771 24.7096 115.771 23.1511C115.771 21.2147 114.386 19.7191 112.214 19.7191H107.853V30.8809H110.041V26.5831H111.174L113.363 30.8809ZM110.041 24.7096V21.6082H111.804C112.906 21.6082 113.552 22.2222 113.552 23.1668C113.552 24.0799 112.906 24.7096 111.804 24.7096H110.041Z" fill="white"/>
<path d="M124.989 30.8809H127.35L123.099 19.7191H120.58L116.298 30.8809H118.597L119.526 28.3305H124.06L124.989 30.8809ZM121.793 22.1278L123.336 26.3469H120.25L121.793 22.1278Z" fill="white"/>
<path d="M81.3424 46.624V44.5774H76.525V41.9956H80.8858V40.0592H76.525V37.5088H81.3424V35.4622H74.3524V46.624H81.3424Z" fill="white"/>
<path d="M92.6864 46.624V35.4622H90.5138V42.8457L85.8696 35.4622H83.1618V46.624H85.3343V38.7053L90.4036 46.624H92.6864Z" fill="white"/>
<path d="M101.851 46.624V44.5774H97.0341V41.9956H101.395V40.0592H97.0341V37.5088H101.851V35.4622H94.8615V46.624H101.851Z" fill="white"/>
<path d="M109.181 46.624H111.605L109.212 42.0585C110.677 41.6335 111.59 40.4527 111.59 38.8942C111.59 36.9578 110.204 35.4622 108.032 35.4622H103.671V46.624H105.859V42.3262H106.993L109.181 46.624ZM105.859 40.4527V37.3514H107.622C108.724 37.3514 109.37 37.9653 109.37 38.9099C109.37 39.823 108.724 40.4527 107.622 40.4527H105.859Z" fill="white"/>
<path d="M123.483 46.624V40.8148H117.91V42.704H121.436C121.31 43.4912 120.507 44.8766 118.445 44.8766C116.572 44.8766 114.918 43.5699 114.918 41.051C114.918 38.4061 116.745 37.2569 118.429 37.2569C120.24 37.2569 121.169 38.4061 121.452 39.398L123.53 38.658C122.979 36.942 121.357 35.226 118.429 35.226C115.407 35.226 112.714 37.4458 112.714 41.051C112.714 44.6562 115.281 46.8602 118.288 46.8602C119.972 46.8602 121.074 46.1045 121.578 45.3489L121.72 46.624H123.483Z" fill="white"/>
<path d="M127.599 46.624V35.4622H125.395V46.624H127.599Z" fill="white"/>
<path d="M137.38 46.624H139.742L135.491 35.4622H132.972L128.69 46.624H130.988L131.917 44.0737H136.451L137.38 46.624ZM134.184 37.8709L135.727 42.09H132.641L134.184 37.8709Z" fill="white"/>
<path fill-rule="evenodd" clip-rule="evenodd" d="M28.8398 0.13824C27.4853 0.252845 25.8255 0.537132 24.2615 0.922556C22.8519 1.26998 22.394 1.43798 22.394 1.6079C22.394 1.73393 26.3859 13.8867 28.8418 21.2377C30.1418 25.1286 30.2079 25.2916 30.2103 24.6049C30.2118 24.208 30.242 21.5293 30.2777 18.6522C30.3132 15.775 30.3451 10.7964 30.3485 7.58853C30.3573 -0.799405 30.3801 0.00956451 30.135 0.0295272C30.0191 0.0389072 29.4362 0.087852 28.8398 0.13824ZM33.6577 0.134993C33.5408 0.323676 33.4532 25.4416 33.5697 25.3264C33.6366 25.2603 33.9469 24.3944 34.2592 23.4023C35.1126 20.6917 36.8159 15.3842 37.2695 14.0223C37.4897 13.3609 38.0332 11.6833 38.4771 10.2943C38.9211 8.90534 39.4992 7.11952 39.7623 6.32583C40.4514 4.2449 40.9488 2.68168 41.1295 2.02832L41.287 1.4589L40.4851 1.22741C38.0589 0.527151 33.8335 -0.148934 33.6577 0.134993ZM18.101 3.18399C16.3843 4.01797 13.399 5.88508 12.342 6.78581L11.8682 7.18963L12.8548 8.74191C13.3974 9.59574 14.3531 11.079 14.9785 12.038C15.604 12.9971 16.5089 14.4041 16.9892 15.1647C17.4697 15.9253 18.2507 17.143 18.7249 17.8705C19.199 18.5981 19.8826 19.6533 20.244 20.2155C21.7738 22.595 23.9715 25.9876 25.624 28.5201C26.5975 30.012 28.0109 32.1923 28.7648 33.3651C29.5187 34.538 30.1543 35.4789 30.1772 35.4561C30.2298 35.4036 27.8649 28.2114 21.4687 8.97148C19.1609 2.02964 19.3797 2.65799 19.2699 2.65799C19.2226 2.65799 18.6966 2.89465 18.101 3.18399ZM44.2147 2.92856C44.0512 3.3657 42.7385 7.37026 41.485 11.2564C40.845 13.2406 40.032 15.757 39.6785 16.8483C39.3249 17.9397 38.7561 19.7255 38.4143 20.8168C38.0726 21.9081 37.476 23.7751 37.0884 24.9657C36.7009 26.1562 35.8619 28.8079 35.2238 30.8583C34.5859 32.9086 33.9866 34.8254 33.892 35.1178C33.7974 35.41 33.7416 35.6707 33.768 35.697C33.8167 35.7456 34.7713 34.3147 37.7001 29.8034C38.592 28.4294 39.9068 26.4094 40.622 25.3144C41.3372 24.2194 42.1836 22.9083 42.503 22.4008C42.8223 21.8933 43.8677 20.2877 44.8259 18.8326C48.6017 13.0991 52.1531 7.59129 52.1531 7.46887C52.1531 7.32853 49.5892 5.4613 48.4182 4.74878C47.2361 4.02964 44.6161 2.65799 44.4244 2.65799C44.3647 2.65799 44.2703 2.77981 44.2147 2.92856ZM8.41439 10.4956C7.29571 11.7533 6.33632 13.0068 5.36872 14.4748C4.65499 15.5577 3.96029 16.8661 3.96029 17.1274C3.96029 17.2719 5.22391 18.5027 8.05584 21.1168C8.4862 21.5141 9.3815 22.3531 10.0455 22.9814C10.7095 23.6098 12.4448 25.2045 13.9016 26.5254C15.3586 27.8462 16.5778 28.957 16.6109 28.9939C16.6967 29.0894 24.8968 36.7077 27.6138 39.2161C28.8675 40.3736 29.9697 41.3648 30.063 41.4188C30.1562 41.4729 29.7079 40.7153 29.0665 39.7352C28.4251 38.7552 27.7 37.6287 27.455 37.2319C27.0065 36.5053 23.1565 30.5321 21.4091 27.8518C20.499 26.4558 19.0786 24.2683 17.9144 22.4697C17.6043 21.9905 17.1101 21.2197 16.8162 20.7567C16.5225 20.2937 15.8427 19.2384 15.3058 18.4117C14.7689 17.5849 13.6746 15.8802 12.874 14.6236C10.5621 10.9944 9.68511 9.64684 9.54367 9.50566C9.44825 9.41042 9.13656 9.68364 8.41439 10.4956ZM53.7706 10.972C53.329 11.6575 52.4536 13.0031 51.8253 13.9621C51.197 14.9212 49.726 17.1689 48.5565 18.9571C47.3871 20.7454 45.1218 24.2088 43.5225 26.6536C40.869 30.7101 37.6218 35.721 35.9025 38.412C35.5301 38.9949 34.9937 39.8336 34.7107 40.276C33.72 41.8235 33.7322 41.865 34.8754 40.8325C38.8119 37.2771 40.727 35.5313 45.1472 31.4688C47.8874 28.9503 50.5217 26.538 51.0013 26.1081C51.9126 25.2911 57.2128 20.3078 59.0764 18.5157C60.1414 17.4915 60.1541 17.4725 60.0006 17.1327C59.4411 15.8944 57.3644 12.842 56.0028 11.2564C54.4848 9.48883 54.7077 9.51733 53.7706 10.972ZM2.26523 20.5377C1.07848 23.6499 0.114141 27.787 0.107032 29.7971L0.104864 30.4197L1.82173 31.315C2.76607 31.8075 4.35186 32.6305 5.34583 33.1439C6.33981 33.6571 7.69523 34.3605 8.35788 34.7069C12.0842 36.6541 15.4492 38.3962 18.1169 39.7591C19.7736 40.6056 22.0236 41.755 23.1169 42.3136C24.2103 42.8721 26.2063 43.8973 27.5526 44.5919C28.8987 45.2863 30.0263 45.8285 30.0583 45.7966C30.0902 45.7647 29.8496 45.5022 29.5234 45.2132C28.8771 44.6403 24.7725 40.8481 23.4181 39.5725C20.088 36.4359 12.2272 29.1765 8.71608 25.9954C8.38307 25.6936 6.97343 24.3824 5.58354 23.0817C4.19378 21.781 2.90764 20.6002 2.72559 20.4577L2.3945 20.1984L2.26523 20.5377ZM60.7563 21.3025C59.2197 22.7522 56.085 25.6837 54.1325 27.4968C49.8519 31.4719 49.1154 32.1537 46.9866 34.1122C45.7685 35.2327 44.4515 36.4327 44.06 36.7785C43.6684 37.1245 42.0626 38.5871 40.4915 40.0288C38.9204 41.4706 36.8089 43.3928 35.7992 44.3004C34.7896 45.2079 33.9826 45.9505 34.0059 45.9505C34.1895 45.9505 50.8136 37.7009 60.3271 32.8887L64.1035 30.9785L64.027 30.0165C63.8112 27.3046 62.8838 23.5404 61.82 21.0579L61.5884 20.5175L60.7563 21.3025ZM0.0398033 35.2176C0.160044 36.897 0.541732 39.1529 1.01113 40.9599C1.42161 42.54 2.06571 44.6009 2.26583 44.974C2.38679 45.1996 2.39547 45.2013 9.02054 46.2453C11.3067 46.6056 15.1019 47.2048 17.4543 47.5771C19.8067 47.9493 22.9513 48.4408 24.4422 48.6694C25.9332 48.8979 27.8037 49.1851 28.5989 49.3075C29.394 49.43 30.0602 49.5165 30.0791 49.4998C30.1434 49.443 21.4713 44.92 14.8639 41.5643C8.07065 38.114 5.13234 36.6058 2.69523 35.3186C1.36993 34.6186 0.211369 34.0457 0.120646 34.0454C-0.0134501 34.0452 -0.02851 34.2645 0.0398033 35.2176ZM60.4664 36.402C51.8247 40.7985 45.0249 44.204 39.8639 46.7203C36.7826 48.2225 34.2175 49.4951 34.1639 49.5483C34.1102 49.6014 34.3542 49.599 34.7061 49.5428C35.5218 49.4127 42.6908 48.3842 50.888 47.2212C58.5903 46.1284 61.8022 45.6274 61.9311 45.4987C61.9841 45.4458 62.1869 44.9436 62.3814 44.3829C63.1885 42.058 63.7195 39.6845 63.9543 37.3521C64.0276 36.6246 64.1185 35.7182 64.1562 35.3378C64.2094 34.8029 64.1882 34.6473 64.0625 34.6507C63.9732 34.6531 62.3549 35.4411 60.4664 36.402ZM4.08077 48.8722C4.08077 49.0355 5.16776 50.8342 5.98511 52.0235C8.28933 55.376 11.6304 58.633 15.0058 60.8166C17.9144 62.6981 21.9283 64.4239 25.1721 65.1874C26.515 65.5036 29.1659 65.9103 29.8941 65.9119L30.4663 65.9132V59.4288V52.9446L30.135 52.8764C29.8639 52.8206 26.8975 52.3369 21.6109 51.4864C21.2133 51.4225 20.5085 51.3146 20.0446 51.2466C19.5808 51.1788 17.873 50.9093 16.2495 50.6479C14.626 50.3864 12.0236 49.9794 10.4663 49.7432C8.90909 49.507 7.14704 49.2368 6.55065 49.1429C5.01692 48.9011 4.08077 48.7986 4.08077 48.8722ZM55.7073 49.8024C53.5206 50.1255 51.3248 50.4448 50.8278 50.5118C46.3464 51.116 39.7178 52.0627 37.3338 52.4389C36.4392 52.5801 35.2736 52.7639 34.7435 52.8474L33.7796 52.9993L33.7163 53.7741C33.6513 54.5703 33.6939 65.9279 33.7622 65.9961C33.7831 66.017 34.6089 65.9525 35.5972 65.8528C44.4486 64.9602 52.2895 60.5536 57.6114 53.481C58.6903 52.0472 60.2254 49.5698 60.2254 49.2624C60.2254 49.1478 59.757 49.2038 55.7073 49.8024Z" fill="#FECD45"/>
</svg>
