<svg width="128" height="56" viewBox="0 0 128 56" fill="none" xmlns="http://www.w3.org/2000/svg">
<path d="M76.9242 32.0733V26.7922H71.8578V28.5096H75.0637C74.9492 29.2252 74.2193 30.4846 72.3444 30.4846C70.6413 30.4846 69.1386 29.2967 69.1386 27.0068C69.1386 24.6024 70.7987 23.5577 72.3301 23.5577C73.976 23.5577 74.8204 24.6024 75.078 25.5041L76.9672 24.8314C76.4663 23.2714 74.9921 21.7114 72.3301 21.7114C69.5822 21.7114 67.1349 23.7294 67.1349 27.0068C67.1349 30.2843 69.4677 32.2879 72.2013 32.2879C73.7327 32.2879 74.7345 31.601 75.1925 30.914L75.3213 32.0733H76.9242Z" fill="black"/>
<path d="M82.4692 32.3023C84.6446 32.3023 86.3764 30.9712 86.3764 28.481V21.9261H84.4013V28.3378C84.4013 29.6689 83.6714 30.3701 82.4692 30.3701C81.2956 30.3701 80.5514 29.6689 80.5514 28.3378V21.9261H78.5764V28.481C78.5764 30.9712 80.3081 32.3023 82.4692 32.3023Z" fill="black"/>
<path d="M94.8972 32.0733H97.044L93.1798 21.9261H90.8899L86.997 32.0733H89.0866L89.931 29.7547H94.0528L94.8972 32.0733ZM91.9919 24.1158L93.3945 27.9514H90.5893L91.9919 24.1158Z" fill="black"/>
<path d="M103.057 32.0733H105.261L103.085 27.9228C104.416 27.5364 105.247 26.463 105.247 25.0461C105.247 23.2857 103.987 21.9261 102.012 21.9261H98.0476V32.0733H100.037V28.1661H101.067L103.057 32.0733ZM100.037 26.463V23.6435H101.64C102.642 23.6435 103.229 24.2017 103.229 25.0604C103.229 25.8905 102.642 26.463 101.64 26.463H100.037Z" fill="black"/>
<path d="M113.626 32.0733H115.773L111.908 21.9261H109.618L105.726 32.0733H107.815L108.659 29.7547H112.781L113.626 32.0733ZM110.72 24.1158L112.123 27.9514H109.318L110.72 24.1158Z" fill="black"/>
<path d="M73.9474 46.3852V44.5246H69.5679V42.1775H73.5323V40.4171H69.5679V38.0986H73.9474V36.238H67.5929V46.3852H73.9474Z" fill="black"/>
<path d="M84.2601 46.3852V36.238H82.2851V42.9503L78.063 36.238H75.6014V46.3852H77.5764V39.1863L82.1849 46.3852H84.2601Z" fill="black"/>
<path d="M92.592 46.3852V44.5246H88.2126V42.1775H92.177V40.4171H88.2126V38.0986H92.592V36.238H86.2375V46.3852H92.592Z" fill="black"/>
<path d="M99.2552 46.3852H101.459L99.2838 42.2347C100.615 41.8483 101.445 40.7749 101.445 39.358C101.445 37.5977 100.185 36.238 98.2104 36.238H94.246V46.3852H96.2354V42.478H97.2659L99.2552 46.3852ZM96.2354 40.7749V37.9555H97.8383C98.8402 37.9555 99.427 38.5136 99.427 39.3723C99.427 40.2024 98.8402 40.7749 97.8383 40.7749H96.2354Z" fill="black"/>
<path d="M112.257 46.3852V41.1041H107.19V42.8215H110.396C110.282 43.5371 109.552 44.7966 107.677 44.7966C105.974 44.7966 104.471 43.6087 104.471 41.3188C104.471 38.9144 106.131 37.8696 107.663 37.8696C109.309 37.8696 110.153 38.9144 110.411 39.816L112.3 39.1434C111.799 37.5834 110.325 36.0234 107.663 36.0234C104.915 36.0234 102.467 38.0413 102.467 41.3188C102.467 44.5962 104.8 46.5999 107.534 46.5999C109.065 46.5999 110.067 45.9129 110.525 45.2259L110.654 46.3852H112.257Z" fill="black"/>
<path d="M115.998 46.3852V36.238H113.995V46.3852H115.998Z" fill="black"/>
<path d="M124.891 46.3852H127.038L123.173 36.238H120.883L116.991 46.3852H119.08L119.925 44.0667H124.046L124.891 46.3852ZM121.985 38.4278L123.388 42.2634H120.583L121.985 38.4278Z" fill="black"/>
<path fill-rule="evenodd" clip-rule="evenodd" d="M26.218 0.51748C24.9866 0.613336 23.4777 0.851116 22.0559 1.17349C20.7744 1.46407 20.3582 1.60459 20.3582 1.74671C20.3582 1.85213 23.9871 12.0168 26.2198 18.1652C27.4016 21.4196 27.4617 21.5559 27.4639 20.9815C27.4652 20.6496 27.4927 18.4091 27.5251 16.0026C27.5575 13.5962 27.5865 9.43201 27.5896 6.74894C27.5975 -0.266771 27.6182 0.409855 27.3955 0.426552C27.2901 0.434398 26.7602 0.475335 26.218 0.51748ZM30.5979 0.514764C30.4916 0.67258 30.412 21.6814 30.5179 21.585C30.5787 21.5297 30.8609 20.8055 31.1448 19.9757C31.9206 17.7085 33.469 13.2693 33.8813 12.1302C34.0816 11.577 34.5756 10.1738 34.9792 9.01207C35.3828 7.85033 35.9084 6.35667 36.1475 5.69281C36.774 3.95231 37.2261 2.64482 37.3904 2.09835L37.5336 1.62209L36.8047 1.42847C34.599 0.842768 30.7577 0.277286 30.5979 0.514764ZM16.4555 3.06496C14.8948 3.76251 12.1809 5.32417 11.22 6.07755L10.7893 6.41531L11.6861 7.71364C12.1795 8.42778 13.0482 9.66838 13.6168 10.4705C14.1855 11.2727 15.008 12.4495 15.4447 13.0857C15.8815 13.7219 16.5915 14.7403 17.0226 15.3488C17.4536 15.9574 18.0751 16.84 18.4037 17.3102C19.7944 19.3005 21.7923 22.138 23.2946 24.2562C24.1796 25.5041 25.4645 27.3277 26.1498 28.3087C26.8352 29.2896 27.413 30.0766 27.4338 30.0575C27.4817 30.0136 25.3317 23.998 19.517 7.90565C17.419 2.09946 17.6179 2.62501 17.5181 2.62501C17.4751 2.62501 16.9969 2.82296 16.4555 3.06496ZM40.1951 2.85132C40.0465 3.21694 38.8532 6.56638 37.7137 9.81674C37.1318 11.4764 36.3927 13.5811 36.0714 14.4939C35.7499 15.4067 35.2328 16.9004 34.9221 17.8131C34.6115 18.7259 34.0691 20.2875 33.7167 21.2833C33.3645 22.2791 32.6017 24.4969 32.0216 26.2119C31.4417 27.9268 30.8969 29.53 30.8109 29.7746C30.7249 30.019 30.6742 30.237 30.6982 30.2591C30.7425 30.2997 31.6103 29.1029 34.2728 25.3296C35.0836 24.1804 36.2789 22.4908 36.9291 21.575C37.5793 20.6591 38.3487 19.5625 38.6391 19.138C38.9293 18.7136 39.8797 17.3706 40.7508 16.1535C44.1833 11.358 47.4119 6.75125 47.4119 6.64886C47.4119 6.53148 45.0811 4.96972 44.0165 4.37376C42.9419 3.77227 40.5601 2.62501 40.3858 2.62501C40.3315 2.62501 40.2458 2.7269 40.1951 2.85132ZM7.64944 9.18045C6.63247 10.2324 5.76029 11.2808 4.88066 12.5087C4.23181 13.4144 3.60026 14.5088 3.60026 14.7273C3.60026 14.8481 4.749 15.8776 7.32349 18.0641C7.71472 18.3963 8.52864 19.0981 9.13225 19.6237C9.73587 20.1492 11.3134 21.483 12.6378 22.5879C13.9624 23.6926 15.0707 24.6217 15.1008 24.6525C15.1788 24.7324 22.6335 31.1044 25.1035 33.2025C26.2432 34.1706 27.2452 34.9996 27.33 35.0447C27.4147 35.09 27.0072 34.4563 26.4241 33.6366C25.841 32.8169 25.1818 31.8747 24.9591 31.5428C24.5513 30.9351 21.0513 25.9391 19.4628 23.6973C18.6354 22.5296 17.3442 20.7 16.2858 19.1957C16.0039 18.7948 15.5546 18.1501 15.2875 17.7629C15.0204 17.3756 14.4025 16.493 13.9144 15.8015C13.4262 15.11 12.4315 13.6842 11.7037 12.6331C9.60191 9.59767 8.80465 8.47053 8.67606 8.35245C8.58931 8.27278 8.30596 8.50131 7.64944 9.18045ZM48.8823 9.57886C48.4809 10.1523 47.6851 11.2777 47.1139 12.0799C46.5427 12.882 45.2055 14.762 44.1423 16.2577C43.0792 17.7534 41.0198 20.6502 39.5659 22.6951C37.1536 26.088 34.2016 30.2791 32.6386 32.5299C32.3001 33.0174 31.8124 33.7189 31.5552 34.0889C30.6545 35.3833 30.6657 35.418 31.7049 34.5544C35.2835 31.5806 37.0245 30.1205 41.0429 26.7225C43.534 24.616 45.9288 22.5984 46.3648 22.2388C47.1933 21.5555 52.0116 17.3874 53.7058 15.8885C54.674 15.0318 54.6855 15.0159 54.546 14.7318C54.0373 13.6961 52.1495 11.1429 50.9116 9.81674C49.5316 8.33836 49.7343 8.3622 48.8823 9.57886ZM2.0593 17.5797C0.980435 20.1828 0.103764 23.6431 0.0973019 25.3243L0.0953306 25.8451L1.65612 26.5939C2.51461 27.0058 3.95623 27.6942 4.85985 28.1236C5.76346 28.5529 6.99567 29.1412 7.59808 29.4309C10.9856 31.0595 14.0447 32.5167 16.4699 33.6566C17.976 34.3646 20.0214 35.326 21.0154 35.7932C22.0094 36.2603 23.8239 37.1178 25.0478 37.6987C26.2716 38.2796 27.2967 38.733 27.3257 38.7064C27.3547 38.6797 27.136 38.4602 26.8395 38.2185C26.2519 37.7393 22.5204 34.5675 21.2892 33.5005C18.2618 30.8771 11.1156 24.8052 7.92371 22.1446C7.62097 21.8921 6.33948 20.7955 5.07595 19.7075C3.81253 18.6196 2.64331 17.632 2.47781 17.5128L2.17682 17.2959L2.0593 17.5797ZM55.233 18.2194C53.8361 19.4319 50.9864 21.8839 49.2114 23.4004C45.3199 26.7252 44.6504 27.2954 42.7151 28.9335C41.6077 29.8707 40.4105 30.8743 40.0545 31.1636C39.6985 31.453 38.2387 32.6763 36.8105 33.8822C35.3822 35.0881 33.4626 36.6958 32.5448 37.4549C31.6269 38.214 30.8933 38.8351 30.9144 38.8351C31.0813 38.8351 46.1942 31.9351 54.8428 27.9101L58.2759 26.3125L58.2063 25.5078C58.0102 23.2395 57.1671 20.0912 56.2 18.0148L55.9895 17.5628L55.233 18.2194ZM0.0361848 29.858C0.145495 31.2627 0.492484 33.1495 0.919209 34.6609C1.29237 35.9826 1.87792 37.7063 2.05984 38.0184C2.16981 38.2071 2.1777 38.2085 8.20049 39.0817C10.2788 39.383 13.729 39.8842 15.8675 40.1956C18.0061 40.5069 20.8648 40.918 22.2202 41.1092C23.5756 41.3003 25.2761 41.5405 25.999 41.6429C26.7219 41.7454 27.3274 41.8177 27.3446 41.8038C27.4031 41.7563 19.5193 37.9732 13.5126 35.1665C7.33696 32.2806 4.66576 31.0192 2.45021 29.9425C1.24539 29.357 0.192154 28.8779 0.109679 28.8777C-0.0122273 28.8775 -0.0259182 29.0609 0.0361848 29.858ZM54.9694 30.8487C47.1133 34.5259 40.9317 37.3744 36.2399 39.479C33.4387 40.7355 31.1069 41.7998 31.0581 41.8443C31.0093 41.8888 31.2311 41.8867 31.551 41.8398C32.2925 41.7309 38.8098 40.8707 46.2619 39.8979C53.2639 38.9839 56.1838 38.5649 56.301 38.4572C56.3492 38.413 56.5335 37.993 56.7104 37.5239C57.4441 35.5794 57.9268 33.5942 58.1403 31.6434C58.2069 31.0349 58.2896 30.2768 58.3239 29.9586C58.3722 29.5112 58.3529 29.3811 58.2387 29.3839C58.1575 29.3859 56.6863 30.045 54.9694 30.8487ZM3.70979 41.2788C3.70979 41.4154 4.69796 42.9198 5.44101 43.9146C7.53575 46.7187 10.5731 49.4428 13.6417 51.2692C16.2858 52.8429 19.9348 54.2864 22.8837 54.925C24.1046 55.1894 26.5144 55.5296 27.1764 55.5309L27.6967 55.532V50.1085V44.685L27.3955 44.628C27.149 44.5813 24.4523 44.1767 19.6463 43.4654C19.2848 43.4119 18.6441 43.3217 18.2224 43.2648C17.8007 43.2081 16.2481 42.9827 14.7722 42.764C13.2963 42.5454 10.9305 42.2049 9.51484 42.0073C8.09917 41.8098 6.49731 41.5838 5.95514 41.5052C4.56083 41.3031 3.70979 41.2173 3.70979 41.2788ZM50.643 42.0568C48.6551 42.3271 46.6589 42.5942 46.2071 42.6502C42.133 43.1556 36.1071 43.9474 33.9398 44.262C33.1266 44.3801 32.0669 44.5339 31.585 44.6037L30.7087 44.7308L30.6512 45.3788C30.5921 46.0448 30.6308 55.5443 30.6929 55.6013C30.7119 55.6188 31.4626 55.5649 32.3611 55.4815C40.4079 54.7349 47.5359 51.0492 52.374 45.1337C53.3549 43.9344 54.7504 41.8623 54.7504 41.6052C54.7504 41.5094 54.3245 41.5562 50.643 42.0568Z" fill="#064A3C"/>
</svg>
