<svg width="45" height="45" viewBox="0 0 45 45" fill="none" xmlns="http://www.w3.org/2000/svg">
<path d="M22.0449 0C17.6849 0 13.4227 1.29291 9.79743 3.71524C6.17216 6.13757 3.34661 9.58051 1.67808 13.6087C0.00955176 17.6369 -0.427011 22.0694 0.423597 26.3457C1.2742 30.622 3.37378 34.55 6.45682 37.633C9.53985 40.7161 13.4679 42.8156 17.7442 43.6663C22.0205 44.5169 26.453 44.0803 30.4812 42.4118C34.5093 40.7432 37.9523 37.9177 40.3746 34.2924C42.7969 30.6672 44.0899 26.405 44.0899 22.0449C44.0833 16.2003 41.7586 10.5969 37.6258 6.46405C33.493 2.33124 27.8896 0.00655611 22.0449 0ZM22.0449 42.0898C18.0804 42.0898 14.2049 40.9142 10.9086 38.7117C7.6122 36.5091 5.04299 33.3785 3.52584 29.7158C2.00869 26.053 1.61173 22.0227 2.38517 18.1343C3.15861 14.246 5.0677 10.6744 7.87103 7.87102C10.6744 5.06769 14.246 3.1586 18.1344 2.38516C22.0227 1.61172 26.0531 2.00868 29.7158 3.52583C33.3785 5.04298 36.5091 7.61219 38.7117 10.9086C40.9142 14.2049 42.0899 18.0804 42.0899 22.0449C42.0838 27.3593 39.97 32.4543 36.2122 36.2122C32.4543 39.97 27.3593 42.0838 22.0449 42.0898Z" fill="black"/>
<path d="M23.8224 21.4942H21.404C20.644 21.4942 19.9151 21.1923 19.3777 20.6549C18.8404 20.1175 18.5385 19.3887 18.5385 18.6287C18.5385 17.8687 18.8404 17.1399 19.3777 16.6025C19.9151 16.0651 20.644 15.7632 21.404 15.7632H25.2697C25.5349 15.7632 25.7893 15.6578 25.9768 15.4703C26.1643 15.2828 26.2697 15.0284 26.2697 14.7632C26.2697 14.498 26.1643 14.2436 25.9768 14.0561C25.7893 13.8685 25.5349 13.7632 25.2697 13.7632H23.0451V12.335C23.0451 12.0697 22.9397 11.8154 22.7522 11.6279C22.5646 11.4403 22.3103 11.335 22.0451 11.335C21.7799 11.335 21.5255 11.4403 21.338 11.6279C21.1504 11.8154 21.0451 12.0697 21.0451 12.335V13.7994C19.7901 13.8894 18.6191 14.4632 17.779 15.3999C16.9389 16.3365 16.4954 17.5628 16.5419 18.8201C16.5884 20.0775 17.1214 21.2676 18.0285 22.1396C18.9355 23.0115 20.1458 23.4972 21.404 23.4941H23.8224C24.5824 23.4941 25.3112 23.796 25.8486 24.3334C26.386 24.8708 26.6879 25.5997 26.6879 26.3596C26.6879 27.1196 26.386 27.8485 25.8486 28.3859C25.3112 28.9232 24.5824 29.2251 23.8224 29.2251H18.2414C17.9762 29.2251 17.7218 29.3305 17.5343 29.518C17.3468 29.7056 17.2414 29.9599 17.2414 30.2251C17.2414 30.4904 17.3468 30.7447 17.5343 30.9322C17.7218 31.1198 17.9762 31.2251 18.2414 31.2251H21.0451V32.6534C21.0451 32.9186 21.1504 33.1729 21.338 33.3605C21.5255 33.548 21.7799 33.6534 22.0451 33.6534C22.3103 33.6534 22.5646 33.548 22.7522 33.3605C22.9397 33.1729 23.0451 32.9186 23.0451 32.6534V31.2251H23.8224C25.1128 31.2251 26.3504 30.7125 27.2628 29.8001C28.1753 28.8876 28.6879 27.6501 28.6879 26.3596C28.6879 25.0692 28.1753 23.8317 27.2628 22.9192C26.3504 22.0068 25.1128 21.4942 23.8224 21.4942Z" fill="black"/>
</svg>
