<svg width="86" height="83" viewBox="0 0 86 83" fill="none" xmlns="http://www.w3.org/2000/svg">
<path d="M43.0288 0C19.5518 0 0.332031 18.6795 0.332031 41.5C0.332031 64.3205 19.5502 83 43.0288 83C66.5075 83 85.7256 64.3205 85.7256 41.5C85.7256 18.6795 66.5075 0 43.0288 0ZM43.0288 14.5C21.5324 14.5 44.0577 43.9577 44.0577 23.0623C44.0577 2.16682 21.5308 26 43.0288 26C64.5269 26 44.0577 2.16682 44.0577 23.0623C44.0577 43.9577 64.5269 14.5 43.0288 14.5Z" fill="#FFD233"/>
<path d="M55.6735 40.4204L38.4104 28.5604C37.9027 28.1968 36.4519 28.1968 36.3071 29.6517V53.2992C36.4524 54.8272 37.9028 54.8272 38.4104 54.3905L55.6 42.603C56.1082 42.312 56.6883 41.2207 55.6729 40.4204H55.6735ZM38.991 50.8254V32.198L52.5552 41.5117L38.991 50.8254Z" fill="#064A3C"/>
</svg>
