<svg width="24" height="24" viewBox="0 0 24 24" fill="none" xmlns="http://www.w3.org/2000/svg">
<path fill-rule="evenodd" clip-rule="evenodd" d="M7.496 3H16.505C18.987 3 21 5.012 21 7.496V16.505C21 18.987 18.988 21 16.504 21H7.496C5.013 21 3 18.988 3 16.504V7.496C3 5.013 5.012 3 7.496 3V3Z" stroke="white" stroke-width="1.5" stroke-linecap="round" stroke-linejoin="round"/>
<path d="M16.9487 6.71304C16.7627 6.71404 16.6117 6.86504 16.6117 7.05104C16.6117 7.23704 16.7637 7.38804 16.9497 7.38804C17.1357 7.38804 17.2867 7.23704 17.2867 7.05104C17.2877 6.86404 17.1357 6.71304 16.9487 6.71304" stroke="white" stroke-width="1.5" stroke-linecap="round" stroke-linejoin="round"/>
<path d="M14.544 9.45432C15.9499 10.8602 15.9499 13.1396 14.544 14.5455C13.1381 15.9514 10.8587 15.9514 9.45285 14.5455C8.04697 13.1396 8.04697 10.8602 9.45285 9.45432C10.8587 8.04843 13.1381 8.04843 14.544 9.45432" stroke="white" stroke-width="1.5" stroke-linecap="round" stroke-linejoin="round"/>
</svg>
